<svg xmlns="http://www.w3.org/2000/svg" data-name="Layer 1" viewBox="0 0 100 125" x="0px" y="0px"><title>a</title><path d="M66.068,43.272a1.1,1.1,0,0,0-.092-.089A21.336,21.336,0,0,0,50,36h0a21.337,21.337,0,0,0-15.975,7.185,1.126,1.126,0,0,0-.093.09,1.2,1.2,0,0,0-.106.134,21.348,21.348,0,0,0,0,27.956,1.094,1.094,0,0,0,.105.133,1.006,1.006,0,0,0,.094.091,21.353,21.353,0,0,0,31.95,0,1.115,1.115,0,0,0,.092-.09,1.076,1.076,0,0,0,.1-.132,21.348,21.348,0,0,0,0-27.959A1.158,1.158,0,0,0,66.068,43.272Zm-1.033,25.7a21.407,21.407,0,0,0-4.172-2.629,36.288,36.288,0,0,0,1.051-7.773h7.039A18.882,18.882,0,0,1,65.035,68.971Zm-33.988-10.4h7.039a36.288,36.288,0,0,0,1.051,7.773,21.378,21.378,0,0,0-4.172,2.629A18.9,18.9,0,0,1,31.047,58.569ZM34.965,45.8a21.378,21.378,0,0,0,4.172,2.629,36.324,36.324,0,0,0-1.05,7.748H31.049A18.888,18.888,0,0,1,34.965,45.8ZM51.2,50.825a25.38,25.38,0,0,0,7.414-1.456,34.018,34.018,0,0,1,.905,6.8H51.2Zm0-2.4V38.549c2.789.732,5.244,3.976,6.756,8.514A22.953,22.953,0,0,1,51.2,48.426Zm-2.4-9.877v9.877a22.953,22.953,0,0,1-6.756-1.363C43.558,42.525,46.013,39.281,48.8,38.549Zm0,12.276v5.348H40.483a34.018,34.018,0,0,1,.905-6.8A25.373,25.373,0,0,0,48.8,50.825Zm-8.32,7.744H48.8v5.373A25.374,25.374,0,0,0,41.388,65.4,33.982,33.982,0,0,1,40.482,58.569Zm8.32,7.772v9.877c-2.789-.732-5.244-3.976-6.756-8.513A22.922,22.922,0,0,1,48.8,66.341Zm2.4,9.877V66.341a22.922,22.922,0,0,1,6.756,1.364C56.442,72.242,53.987,75.486,51.2,76.218Zm0-12.276V58.569h8.319a33.911,33.911,0,0,1-.905,6.83A25.38,25.38,0,0,0,51.2,63.942Zm10.715-7.769a36.26,36.26,0,0,0-1.051-7.748A21.385,21.385,0,0,0,65.035,45.8a18.888,18.888,0,0,1,3.916,10.377Zm1.541-12.179a18.912,18.912,0,0,1-3.284,2.1,24.266,24.266,0,0,0-1.522-3.553,17.391,17.391,0,0,0-1.929-2.924A19.034,19.034,0,0,1,63.454,43.994ZM43.281,39.622a17.455,17.455,0,0,0-1.93,2.924A24.372,24.372,0,0,0,39.83,46.1a18.912,18.912,0,0,1-3.284-2.1A19.025,19.025,0,0,1,43.281,39.622ZM36.546,70.773a18.849,18.849,0,0,1,3.284-2.1,24.407,24.407,0,0,0,1.521,3.552,17.506,17.506,0,0,0,1.93,2.925A19.05,19.05,0,0,1,36.546,70.773Zm20.173,4.373a17.442,17.442,0,0,0,1.929-2.925,24.266,24.266,0,0,0,1.522-3.553,18.912,18.912,0,0,1,3.284,2.1A19.05,19.05,0,0,1,56.719,75.146ZM39.026,25.8,49.4,31.79l.009.005a1.258,1.258,0,0,0,.133.065l.006,0c.042.017.085.031.129.044l.034.009c.036.008.072.016.109.021l.036.006a1.355,1.355,0,0,0,.143.009h0a1.32,1.32,0,0,0,.142-.009l.037-.006q.055-.009.108-.021l.036-.009a1.1,1.1,0,0,0,.126-.043l.009,0a1.228,1.228,0,0,0,.131-.065l.01-.005L60.974,25.8a1.2,1.2,0,0,0,.6-1.037V12.772a1.024,1.024,0,0,0-.01-.146v-.01a1.2,1.2,0,0,0-.026-.13l-.01-.036a.967.967,0,0,0-.036-.1l-.013-.036a1.33,1.33,0,0,0-.063-.125l0,0a1.034,1.034,0,0,0-.078-.117l-.023-.029c-.023-.029-.047-.057-.072-.083l-.026-.026a1.187,1.187,0,0,0-.1-.088l-.007-.006a1.238,1.238,0,0,0-.122-.082l-.009-.006L50.6,5.755a1.2,1.2,0,0,0-1.2,0l-10.375,5.99-.008.006a1.143,1.143,0,0,0-.123.082l-.006,0c-.035.028-.069.058-.1.089l-.026.026c-.025.026-.049.054-.072.083l-.023.029a1.034,1.034,0,0,0-.078.117l0,0c-.023.041-.043.083-.062.125l-.013.036a1.052,1.052,0,0,0-.036.1l-.01.036a1.15,1.15,0,0,0-.026.13l0,.01a1.192,1.192,0,0,0-.009.146V24.763A1.2,1.2,0,0,0,39.026,25.8Zm1.8-10.943,7.98,4.607v9.215l-7.98-4.608ZM51.2,28.679V19.464l7.979-4.607v9.214ZM50,8.176l7.98,4.607L50,17.39l-7.98-4.607ZM28.136,70.523l0-.009a1.213,1.213,0,0,0-.026-.131l-.01-.035a.984.984,0,0,0-.036-.1l-.013-.035c-.019-.043-.039-.085-.062-.126l0,0a1.174,1.174,0,0,0-.078-.116l-.023-.03c-.023-.029-.047-.056-.072-.082l-.026-.027q-.048-.046-.1-.087l-.008-.007a1.228,1.228,0,0,0-.122-.081l-.009-.006L17.172,63.652a1.2,1.2,0,0,0-1.2,0L5.6,69.643l-.01.006a1.1,1.1,0,0,0-.12.081l-.01.008c-.034.027-.066.056-.1.086l-.026.027c-.025.026-.049.054-.072.083l-.023.028a1.227,1.227,0,0,0-.079.119,1.1,1.1,0,0,0-.064.129l-.013.032a1.121,1.121,0,0,0-.036.107l-.009.033a1.075,1.075,0,0,0-.027.135v.005A1.062,1.062,0,0,0,5,70.67V82.66A1.2,1.2,0,0,0,5.6,83.7l10.375,5.991.01,0a1.228,1.228,0,0,0,.131.065l.009,0a1.1,1.1,0,0,0,.126.043l.036.009a.937.937,0,0,0,.108.021l.037.006a1.125,1.125,0,0,0,.284,0l.037-.006a.937.937,0,0,0,.108-.021L16.9,89.8a1.1,1.1,0,0,0,.126-.043l.009,0a1.228,1.228,0,0,0,.131-.065l.01,0L27.547,83.7a1.2,1.2,0,0,0,.6-1.037V70.67A1.208,1.208,0,0,0,28.136,70.523Zm-11.563-4.45,7.98,4.607-7.98,4.607L8.593,70.68ZM7.4,76.67V72.755l7.979,4.607v9.214L7.4,81.969Zm10.376,9.906V77.362l7.98-4.607v9.214ZM95,70.669a1.2,1.2,0,0,0-.009-.146l0-.009a1.167,1.167,0,0,0-.026-.131l-.01-.035a.984.984,0,0,0-.036-.1l-.013-.035a1.249,1.249,0,0,0-.063-.127v0a1.347,1.347,0,0,0-.079-.118l-.023-.029c-.023-.029-.047-.056-.073-.083l-.025-.026c-.032-.031-.065-.06-.1-.088l-.007-.006a1.16,1.16,0,0,0-.121-.081l-.01-.006L84.026,63.652a1.2,1.2,0,0,0-1.2,0L72.453,69.643l-.01.006a1.2,1.2,0,0,0-.12.081l-.01.008a.978.978,0,0,0-.1.086l-.027.027c-.025.026-.049.053-.072.082l-.023.03a1.174,1.174,0,0,0-.078.116l0,0c-.023.041-.043.083-.062.126l-.013.035a.984.984,0,0,0-.036.1l-.01.035a1.2,1.2,0,0,0-.026.13l0,.01a1.2,1.2,0,0,0-.009.146V82.66c0,.034,0,.068.007.1a1.194,1.194,0,0,0,1.191,1.311l.046,0,9.73,5.618.01,0a1.228,1.228,0,0,0,.131.065l.009,0a1.1,1.1,0,0,0,.126.043l.036.009a.937.937,0,0,0,.108.021l.037.006a1.125,1.125,0,0,0,.284,0l.037-.006a.937.937,0,0,0,.108-.021l.036-.009a1.1,1.1,0,0,0,.126-.043l.009,0a1.228,1.228,0,0,0,.131-.065l.01,0L94.4,83.7A1.2,1.2,0,0,0,95,82.66V70.669Zm-11.572-4.6,7.98,4.607-7.98,4.607-7.98-4.607ZM74.25,72.754l7.979,4.607v9.215L74.25,81.969ZM84.625,86.576V77.361l7.98-4.607v9.215ZM66.388,27.144a1.2,1.2,0,0,1,1.64-.424A35.423,35.423,0,0,1,85.26,52.713l1.6-2.2A1.2,1.2,0,1,1,88.8,51.924l-3.488,4.793-.007.008a1.035,1.035,0,0,1-.084.1l-.022.022c-.023.023-.047.046-.072.068s-.027.022-.04.033-.042.032-.064.047l-.044.029c-.024.015-.049.029-.074.043l-.038.02c-.036.017-.073.033-.111.047l-.006,0c-.042.015-.085.027-.129.038l-.026.005c-.033.007-.066.013-.1.017a.423.423,0,0,1-.05.005l-.054.005h-.052a1.189,1.189,0,0,1-.159-.013l-.037-.005a1.157,1.157,0,0,1-.157-.037l-.022-.008a1.419,1.419,0,0,1-.145-.059l-.02-.01a1.211,1.211,0,0,1-.146-.089l-.014-.008-4.793-3.488a1.2,1.2,0,1,1,1.41-1.937l2.69,1.958a33.035,33.035,0,0,0-16.131-24.73A1.2,1.2,0,0,1,66.388,27.144ZM14.436,57.74c0-.119,0-.237,0-.356A35.508,35.508,0,0,1,28.352,29.165l-2.72-.288a1.2,1.2,0,1,1,.252-2.382l5.9.624a1.2,1.2,0,0,1,1.068,1.117v.006c0,.033,0,.066,0,.1,0,.016,0,.032,0,.049s0,.03,0,.046l-.624,5.894A1.2,1.2,0,0,1,31.03,35.4,1.093,1.093,0,0,1,30.9,35.4a1.2,1.2,0,0,1-1.065-1.317l.349-3.3a33.007,33.007,0,0,0-13.357,26.6c0,.111,0,.222,0,.333a1.2,1.2,0,0,1-1.187,1.209h-.011A1.2,1.2,0,0,1,14.436,57.74ZM67.067,87.245a1.2,1.2,0,0,1-.5,1.618,35.632,35.632,0,0,1-30.152,1.395l1.094,2.463a1.2,1.2,0,0,1-2.189.973l-2.407-5.417A1.2,1.2,0,0,1,33.52,86.7l5.417-2.407a1.2,1.2,0,0,1,.973,2.189l-3.062,1.36a33.215,33.215,0,0,0,28.6-1.094A1.2,1.2,0,0,1,67.067,87.245Z"/></svg>